<svg width="196" height="196" viewBox="0 0 196 196" fill="none" xmlns="http://www.w3.org/2000/svg">
<rect width="196" height="196" fill="url(#paint0_linear_98_3532)"/>
<path d="M167.819 97.701C167.819 111.289 163.748 124.571 156.121 135.869C148.494 147.167 137.654 155.973 124.971 161.173C112.288 166.372 98.3323 167.733 84.8682 165.082C71.4041 162.431 59.0366 155.888 49.3295 146.28C39.6224 136.672 33.0119 124.431 30.3337 111.104C27.6555 97.7773 29.03 83.9638 34.2835 71.4103C39.5369 58.8568 48.4333 48.1272 59.8476 40.5782C71.2619 33.0292 84.6814 29 98.4093 29V41.8988C87.2589 41.8988 76.3589 45.1716 67.0876 51.3032C57.8164 57.4348 50.5904 66.1499 46.3233 76.3465C42.0562 86.543 40.9397 97.763 43.1151 108.588C45.2904 119.412 50.6599 129.355 58.5444 137.159C66.4289 144.963 76.4744 150.278 87.4106 152.431C98.3468 154.584 109.682 153.479 119.984 149.256C130.286 145.032 139.091 137.88 145.285 128.703C151.48 119.526 154.787 108.738 154.787 97.701H167.819Z" fill="white"/>
<path d="M146.571 98.4094C146.571 109.586 142.506 120.393 135.112 128.871C127.718 137.349 117.486 142.936 106.269 144.621C95.0525 146.305 83.5946 143.975 73.9724 138.052C64.3501 132.13 57.2006 123.007 53.8198 112.338C50.439 101.669 51.0508 90.1597 55.5442 79.8968C60.0376 69.6339 68.1153 61.2966 78.3128 56.3964C88.5103 51.4963 100.153 50.3575 111.129 53.1866C122.106 56.0158 131.69 62.6255 138.144 71.8176L130.817 76.8103C125.574 69.344 117.79 63.9753 108.874 61.6773C99.9583 59.3794 90.5018 60.3043 82.2189 64.2845C73.936 68.2647 67.375 75.0366 63.7252 83.3726C60.0755 91.7086 59.5785 101.057 62.3246 109.723C65.0706 118.389 70.8778 125.799 78.6935 130.609C86.5091 135.42 95.8158 137.312 104.926 135.944C114.037 134.576 122.348 130.038 128.354 123.152C134.359 116.265 137.661 107.488 137.661 98.4094H146.571Z" fill="white"/>
<path d="M126.74 98.4093C126.74 113.273 114.373 125.323 99.1176 125.323C83.8623 125.323 71.4955 113.273 71.4955 98.4093C71.4955 83.5452 83.8623 71.4955 99.1176 71.4955C114.373 71.4955 126.74 83.5452 126.74 98.4093ZM78.0234 98.4093C78.0234 109.761 87.4675 118.963 99.1176 118.963C110.768 118.963 120.212 109.761 120.212 98.4093C120.212 87.058 110.768 77.856 99.1176 77.856C87.4675 77.856 78.0234 87.058 78.0234 98.4093Z" fill="white"/>
<rect x="112.567" y="80.637" width="21.2477" height="7.08258" transform="rotate(-34.2518 112.567 80.637)" fill="white"/>
<rect x="57.3303" y="114.617" width="21.2477" height="7.08258" transform="rotate(-34.25 57.3303 114.617)" fill="white"/>
<defs>
<linearGradient id="paint0_linear_98_3532" x1="93.5573" y1="116.224" x2="105.543" y2="0.00215478" gradientUnits="userSpaceOnUse">
<stop stop-color="#020326"/>
<stop offset="1" stop-color="#014F34"/>
</linearGradient>
</defs>
</svg>
